<?xml version="1.0" encoding="utf-8"?>
<!-- Generator: Adobe Illustrator 16.0.0, SVG Export Plug-In . SVG Version: 6.00 Build 0)  -->
<!DOCTYPE svg PUBLIC "-//W3C//DTD SVG 1.1//EN" "http://www.w3.org/Graphics/SVG/1.1/DTD/svg11.dtd">
<svg version="1.1" id="Layer_1" xmlns="http://www.w3.org/2000/svg" xmlns:xlink="http://www.w3.org/1999/xlink" x="0px" y="0px"
	 width="25.5px" height="25.5px" viewBox="0 0 25.5 25.5" enable-background="new 0 0 25.5 25.5" xml:space="preserve">
<g>
	<g>
		<path fill="#0971B8" d="M17.438,2v8.554c0,0.572-1.566,1.593-4.688,1.593s-4.687-1.021-4.687-1.593V2H17.438 M18.938,0.5H6.563
			v10.054c0,1.708,2.343,3.092,6.187,3.092c3.844,0,6.188-1.384,6.188-3.092V0.5L18.938,0.5z"/>
	</g>
	<line fill="none" stroke="#0971B8" stroke-width="1.5" stroke-miterlimit="10" x1="8.11" y1="24.475" x2="17.391" y2="24.475"/>
	<line fill="none" stroke="#0971B8" stroke-width="1.5" stroke-miterlimit="10" x1="12.75" y1="13.646" x2="12.75" y2="24.475"/>
	<path fill="none" stroke="#0971B8" stroke-width="1.5" stroke-miterlimit="10" d="M6.563,2.819h-3.48c0,0,0,3.48,3.48,3.48"/>
	<path fill="none" stroke="#0971B8" stroke-width="1.5" stroke-miterlimit="10" d="M18.938,2.819h3.479c0,0,0,3.48-3.479,3.48"/>
</g>
</svg>
