<?xml version="1.0" encoding="utf-8"?>
<!-- Generator: Adobe Illustrator 16.0.0, SVG Export Plug-In . SVG Version: 6.00 Build 0)  -->
<!DOCTYPE svg PUBLIC "-//W3C//DTD SVG 1.1//EN" "http://www.w3.org/Graphics/SVG/1.1/DTD/svg11.dtd">
<svg version="1.1" id="Layer_1" xmlns="http://www.w3.org/2000/svg" xmlns:xlink="http://www.w3.org/1999/xlink" x="0px" y="0px"
	 width="25.5px" height="25.5px" viewBox="0 0 25.5 25.5" enable-background="new 0 0 25.5 25.5" xml:space="preserve">
<g>
	<path fill="#0971B8" d="M12.75,4.717l1.889,5.428l0.35,1.007h1.066h4.715l-3.982,3.098l-0.838,0.65l0.336,1.008l1.785,5.359
		l-4.42-3.314l-0.899-0.676l-0.9,0.676L7.43,21.268l1.787-5.359L9.553,14.9l-0.838-0.65L4.73,11.153h4.715h1.066l0.35-1.007
		L12.75,4.717 M12.75,0.151L9.445,9.653H0.358l7.435,5.783L4.488,25.35l8.262-6.194l8.262,6.194l-3.305-9.914l7.436-5.783h-9.088
		L12.75,0.151L12.75,0.151z"/>
</g>
</svg>
